<?xml version="1.0" standalone="no"?>
<!DOCTYPE svg PUBLIC "-//W3C//DTD SVG 20010904//EN"
 "http://www.w3.org/TR/2001/REC-SVG-20010904/DTD/svg10.dtd">
<svg version="1.0" xmlns="http://www.w3.org/2000/svg"
 width="379.000000pt" height="97.000000pt" viewBox="0 0 379.000000 97.000000"
 preserveAspectRatio="xMidYMid meet">

<g transform="translate(0.000000,97.000000) scale(0.100000,-0.100000)"
fill="#000000" stroke="none">
<path d="M30 795 c0 -77 2 -85 19 -85 24 0 58 53 69 106 8 39 8 39 60 42 l52
3 -2 -308 -3 -308 -22 -3 c-13 -2 -23 -8 -23 -13 0 -5 56 -9 130 -9 74 0 130
4 130 9 0 5 -10 11 -22 13 l-23 3 -3 308 -2 308 51 -3 52 -3 12 -47 c15 -60
40 -98 65 -98 18 0 20 7 20 85 l0 85 -280 0 -280 0 0 -85z"/>
<path d="M2420 871 c0 -5 10 -11 23 -13 l22 -3 0 -305 0 -305 -22 -3 c-13 -2
-23 -8 -23 -13 0 -5 56 -9 130 -9 123 0 166 10 100 24 l-30 6 0 294 0 295 -26
20 c-22 17 -41 21 -100 21 -41 0 -74 -4 -74 -9z"/>
<path d="M3526 871 c5 -5 18 -11 29 -13 18 -3 20 -12 23 -96 l3 -93 -33 17
c-46 24 -123 22 -176 -5 -105 -54 -142 -228 -78 -368 31 -66 74 -96 146 -101
65 -5 110 13 137 54 l16 26 13 -25 c18 -34 61 -49 130 -45 55 3 57 8 9 23 -13
4 -15 45 -15 295 l0 291 -25 24 c-22 23 -32 25 -107 25 -49 0 -78 -4 -72 -9z
m37 -218 c15 -14 17 -36 17 -177 0 -142 -2 -165 -20 -193 -20 -33 -57 -50 -85
-39 -34 13 -48 76 -49 206 0 136 12 190 47 215 25 18 62 12 90 -12z"/>
<path d="M2255 708 c-11 -6 -25 -17 -32 -25 -10 -13 -18 -13 -49 -3 -45 15
-133 18 -187 7 -48 -10 -102 -58 -117 -103 -16 -48 -4 -107 28 -140 21 -21 24
-28 12 -32 -8 -3 -27 -18 -42 -33 -53 -53 -27 -137 50 -159 20 -5 94 -10 164
-10 70 0 138 -4 152 -10 63 -24 51 -101 -21 -136 -42 -20 -157 -30 -228 -19
l-45 6 0 70 0 69 -35 0 c-43 0 -75 -29 -75 -68 0 -62 88 -102 225 -102 111 0
174 20 219 70 32 36 36 46 36 96 0 66 -20 108 -63 134 -27 17 -51 20 -159 20
-132 0 -178 9 -178 34 0 24 35 38 65 26 14 -5 61 -10 103 -10 86 0 138 22 175
72 30 40 28 118 -3 160 l-23 31 29 25 29 25 3 -62 3 -62 32 3 c42 4 62 41 46
87 -17 48 -67 65 -114 39z m-155 -46 c16 -13 25 -34 30 -70 10 -79 -3 -152
-30 -174 -29 -23 -36 -23 -64 5 -44 44 -46 188 -3 235 25 27 38 28 67 4z"/>
<path d="M803 700 c-69 -14 -113 -56 -113 -106 0 -26 47 -64 80 -64 l30 0 0
74 c0 74 0 74 28 81 72 15 113 -32 120 -141 l5 -74 -39 0 c-46 0 -209 -25
-224 -35 -18 -11 -32 -56 -32 -103 0 -75 62 -122 159 -122 61 0 112 22 134 58
11 18 13 17 39 -12 25 -27 34 -31 99 -34 72 -4 99 10 41 22 l-30 6 0 150 c0
165 -7 196 -56 242 -54 51 -156 75 -241 58z m147 -326 c0 -70 -2 -78 -29 -105
-72 -72 -130 1 -105 131 8 37 30 48 92 49 l42 1 0 -76z"/>
<path d="M1495 695 c-22 -8 -51 -26 -64 -41 -21 -25 -24 -26 -33 -11 -5 9 -22
24 -38 32 -33 17 -145 21 -135 5 3 -5 15 -10 26 -10 19 0 19 -7 17 -212 -3
-212 -3 -213 -25 -216 -13 -2 -23 -8 -23 -13 0 -5 56 -9 130 -9 123 0 166 10
100 24 l-30 6 0 172 c0 154 2 176 20 205 31 51 90 56 120 11 11 -17 16 -67 20
-201 6 -219 5 -217 133 -217 49 0 77 4 72 9 -6 5 -19 11 -30 13 -19 3 -20 13
-25 178 -3 114 -9 183 -18 197 -20 35 -73 71 -122 82 -55 13 -47 13 -95 -4z"/>
<path d="M2920 701 c-74 -16 -136 -66 -164 -133 -24 -57 -21 -181 5 -235 26
-54 78 -97 135 -113 62 -18 167 -9 201 16 32 24 73 80 73 100 0 26 -18 14 -37
-23 -10 -21 -33 -48 -52 -60 -90 -60 -181 5 -181 131 l0 43 121 12 c164 17
169 19 169 76 0 80 -46 143 -125 173 -43 16 -105 21 -145 13z m65 -17 c38 -15
68 -141 46 -196 -10 -26 -14 -28 -71 -28 l-60 0 0 58 c0 66 15 130 38 155 17
19 22 20 47 11z"/>
</g>
</svg>
